<svg width="292" height="425" viewBox="0 0 292 425" fill="none" xmlns="http://www.w3.org/2000/svg">
<path d="M291.659 213.129C291.659 284.464 279.493 336.916 255.999 370.066C232.085 403.215 195.586 420 146.081 420C97.8341 420 61.7541 402.796 37.0015 367.968C12.6685 333.14 0.501953 281.527 0.501953 213.129C0.501953 141.375 12.2489 88.9231 36.582 55.3539C60.4955 21.7846 96.9951 5 146.5 5C194.327 5 230.827 22.6239 255.16 57.452C279.493 92.2801 291.659 143.893 291.659 213.129ZM108.742 213.129C108.742 258.868 111.679 290.339 117.133 307.123C123.006 324.328 132.236 332.72 145.661 332.72C159.086 332.72 168.736 323.908 174.609 306.284C180.063 288.66 183 257.609 183 213.129C183 168.231 180.063 137.179 174.609 119.135C168.736 101.092 159.506 92.2801 146.081 92.2801C132.656 92.2801 123.006 101.092 117.552 118.296C111.679 135.501 108.742 166.972 108.742 213.129Z" fill="#EEDCFC"/>
<path d="M116.855 211.512C116.855 221.005 124.652 228.463 133.806 228.463C142.959 228.463 150.757 220.666 150.757 211.512" stroke="black" stroke-width="3" stroke-miterlimit="10"/>
<path d="M173.809 171.847V164.727C153.129 156.93 130.076 127.775 130.076 127.775C130.076 127.775 93.8016 146.421 93.1235 171.508" stroke="black" stroke-width="3" stroke-miterlimit="10"/>
<path d="M179.233 269.145V376.274H153.807" stroke="black" stroke-width="3" stroke-miterlimit="10"/>
<path d="M94.8184 259.313V376.273H115.159" stroke="black" stroke-width="3" stroke-miterlimit="10"/>
<path d="M108.378 376.274V387.8" stroke="black" stroke-width="3" stroke-miterlimit="10"/>
<path d="M111.769 409.836V423.397H115.159V391.19H98.2085L88.0381 409.836L68.0361 420.007V423.397H98.2085L111.769 409.836Z" stroke="black" stroke-width="3" stroke-miterlimit="10"/>
<path d="M158.892 376.274V387.8" stroke="black" stroke-width="3" stroke-miterlimit="10"/>
<path d="M152.112 271.857V387.8" stroke="black" stroke-width="3" stroke-miterlimit="10"/>
<path d="M155.502 409.836V423.397H152.112V391.19H168.724L178.895 409.836L199.236 420.007V423.397H168.724L155.502 409.836Z" stroke="black" stroke-width="3" stroke-miterlimit="10"/>
<path d="M103.293 221.682L123.634 241.684H126.686L133.466 231.514H133.805L140.246 241.684H143.636L163.977 221.682" stroke="black" stroke-width="3" stroke-miterlimit="10"/>
<path d="M173.809 171.169C173.809 193.544 155.841 211.512 133.466 211.512C111.091 211.512 93.1235 193.544 93.1235 171.169" stroke="black" stroke-width="3" stroke-miterlimit="10"/>
<path d="M120.584 187.781C121.94 193.544 127.364 197.951 133.467 197.951C139.569 197.951 144.993 193.544 146.349 187.781" stroke="black" stroke-width="3" stroke-miterlimit="10"/>
<path d="M133.466 97.2634C158.893 97.2634 179.234 134.555 184.319 160.998C186.014 170.83 184.997 174.559 184.319 208.122C183.98 230.836 183.98 249.143 183.98 261.008C183.98 264.737 184.319 268.127 184.319 271.857H180.929C177.877 268.127 174.487 263.72 171.436 257.957C164.317 244.396 162.961 231.175 162.961 223.377C162.961 219.309 162.961 215.58 163.3 211.512C153.468 211.512 143.298 211.173 133.466 211.173C129.059 211.173 122.618 211.512 115.499 213.885C110.413 215.58 106.345 217.275 103.294 219.309L99.9038 221.343C106.684 251.516 86.3432 271.857 86.3432 271.857H82.953C83.292 268.466 83.9701 265.076 84.3091 261.347C83.9701 249.821 83.631 230.836 82.953 207.783C81.936 172.186 81.5969 168.118 82.953 160.659C88.0382 134.894 108.04 97.2634 133.466 97.2634Z" stroke="black" stroke-width="3" stroke-miterlimit="10"/>
<path d="M95.8354 354.237L83.9698 350.847V333.897H73.7993V271.857C73.7993 267.11 74.4773 261.008 76.5114 253.889C78.5455 246.769 81.2577 241.345 83.6308 237.616" stroke="black" stroke-width="3" stroke-miterlimit="10"/>
<path d="M162.283 226.429L155.163 248.465C153.129 254.906 152.112 261.686 152.112 268.467V273.213" stroke="black" stroke-width="3" stroke-miterlimit="10"/>
<path d="M115.16 271.857V387.8" stroke="black" stroke-width="3" stroke-miterlimit="10"/>
<path d="M104.989 226.429L112.108 248.465C114.142 254.906 115.159 261.686 115.159 268.467V273.213" stroke="black" stroke-width="3" stroke-miterlimit="10"/>
<path d="M115.16 367.798H152.112" stroke="black" stroke-width="3" stroke-miterlimit="10"/>
<path d="M115.16 342.711H153.807" stroke="black" stroke-width="3" stroke-miterlimit="10"/>
<path d="M221.271 152.862C221.271 165.745 181.945 176.254 133.805 176.254C85.6649 176.254 46 166.084 46 152.862C46 144.387 62.6118 136.928 87.699 132.86C103.294 89.4661 118.549 45.7331 134.144 2H138.89C153.129 45.7331 167.368 89.4661 181.606 133.199C205.337 137.606 221.271 144.726 221.271 152.862Z" fill="#121212" stroke="black" stroke-width="3" stroke-miterlimit="10"/>
<path d="M180.928 212.19C192.455 212.19 203.981 212.19 215.508 212.19C215.508 221.343 215.508 233.209 215.508 242.362C203.981 242.362 192.455 242.362 180.928 242.701" stroke="black" stroke-width="3" stroke-miterlimit="10"/>
<path d="M224.323 213.885L216.526 218.631V235.921L234.833 239.65L240.935 234.226L242.63 226.09L235.85 225.073L237.545 216.597L224.323 213.885Z" fill="#121212" stroke="black" stroke-width="3" stroke-miterlimit="10"/>
<path d="M229.408 166.084V212.19" stroke="black" stroke-width="3" stroke-miterlimit="10"/>
<path d="M229.408 239.65V345.084" stroke="black" stroke-width="3" stroke-miterlimit="10"/>
<path d="M229.408 345.084C229.408 371.188 229.408 396.953 229.408 423.058C235.51 423.058 241.273 423.058 247.375 423.058C247.375 422.719 247.375 422.38 247.375 422.041C241.273 396.275 235.171 370.849 229.408 345.084ZM229.408 345.084C223.644 370.51 217.542 396.275 211.779 421.702C211.779 422.041 211.779 422.38 211.779 423.058C217.542 423.058 223.644 423.058 229.408 423.058" stroke="black" stroke-width="3" stroke-miterlimit="10"/>
<path d="M83.9692 334.235H94.4787" stroke="black" stroke-width="3" stroke-miterlimit="10"/>
</svg>
